Coordinates
version=1
nRows=17
nColumns=40
inDegrees=yes

Units are S.I. units (second, meters, Newtons, ...)
If the header above contains a line with 'inDegrees', this indicates whether rotational values are in degrees (yes) or radians (no).

endheader
time	pelvis_tilt	pelvis_list	pelvis_rotation	pelvis_tx	pelvis_ty	pelvis_tz	hip_flexion_r	hip_adduction_r	hip_rotation_r	knee_angle_r	knee_angle_r_beta	ankle_angle_r	subtalar_angle_r	mtp_angle_r	hip_flexion_l	hip_adduction_l	hip_rotation_l	knee_angle_l	knee_angle_l_beta	ankle_angle_l	subtalar_angle_l	mtp_angle_l	lumbar_extension	lumbar_bending	lumbar_rotation	arm_flex_r	arm_add_r	arm_rot_r	elbow_flex_r	pro_sup_r	wrist_flex_r	wrist_dev_r	arm_flex_l	arm_add_l	arm_rot_l	elbow_flex_l	pro_sup_l	wrist_flex_l	wrist_dev_l
      3.12500000	      7.14017481	     -5.44406459	      1.34637193	     -0.34716374	      0.82143276	     -1.05239395	     42.16272588	      3.47939702	     -0.53097660	      0.88492960	      0.01544494	     -8.68464793	      0.00000000	      0.00000000	     40.47876802	     -2.58536027	      0.57386395	     88.67339481	      1.54764270	     31.00297792	      0.00000000	      0.00000000	    -24.54324881	      0.95374507	      4.43425368	     89.94514740	      0.36452474	     15.83163498	     42.04272838	     84.18970350	      0.00000000	      0.00000000	     89.96219638	     -2.58679808	     21.61762217	     49.15690050	     74.05953805	      0.00000000	      0.00000000
      3.13000000	      7.10179357	     -5.48982092	      1.48289585	     -0.34723755	      0.82024434	     -1.05256145	     42.31179079	      3.41460610	     -0.67822933	      0.88598354	      0.01546333	     -8.66392918	      0.00000000	      0.00000000	     40.66287637	     -2.51050608	      0.73666933	     88.89031837	      1.55142873	     31.08623947	      0.00000000	      0.00000000	    -24.54383542	      1.03064500	      4.32644707	     89.94571477	      0.35191098	     15.69481042	     42.19501961	     83.90983420	      0.00000000	      0.00000000	     89.96237890	     -2.46854521	     21.24522111	     49.12085445	     77.82840426	      0.00000000	      0.00000000
      3.13500000	      7.06099613	     -5.43625303	      1.48320577	     -0.34722924	      0.81911191	     -1.05238934	     42.44232926	      3.38158828	     -0.43060802	      0.86914856	      0.01516950	     -8.65775170	      0.00000000	      0.00000000	     40.81208629	     -2.45790462	      0.71980060	     89.10952135	      1.55525454	     31.14004360	      0.00000000	      0.00000000	    -24.53642847	      0.92561880	      4.31777239	     89.94616110	      0.26545296	     15.60972610	     42.35959917	     83.83084014	      0.00000000	      0.00000000	     89.96263176	     -2.33544492	     21.17211020	     49.25482005	     75.61480434	      0.00000000	      0.00000000
      3.14000000	      6.99905058	     -5.57583830	      1.57812690	     -0.34739075	      0.81780195	     -1.05236736	     42.61316868	      3.44617299	     -0.48544013	      0.85417755	      0.01490821	     -8.56344312	      0.00000000	      0.00000000	     41.04409216	     -2.51594505	      0.90794843	     89.36008959	      1.55962778	     31.30880875	      0.00000000	      0.00000000	    -24.51779057	      1.10241083	      4.27712189	     89.94672971	      0.39120664	     16.13126287	     42.56200620	     76.45393475	      0.00000000	      0.00000000	     89.96274337	     -2.25807279	     21.21983367	     49.59621100	     68.51908175	      0.00000000	      0.00000000
      3.14500000	      6.93519360	     -5.51776409	      1.68830428	     -0.34758546	      0.81675632	     -1.05255050	     42.79499518	      3.30256340	     -0.42446267	      0.86336286	      0.01506852	     -8.61019360	      0.00000000	      0.00000000	     41.22710682	     -2.37688254	      0.96200764	     89.49770198	      1.56202957	     31.23210245	      0.00000000	      0.00000000	    -24.50302808	      1.04205385	      4.18987157	     89.94736607	      0.31357698	     15.08780755	     42.57890077	     83.72303516	      0.00000000	      0.00000000	     89.96310484	     -2.05565480	     20.73973672	     49.34895914	     77.18126418	      0.00000000	      0.00000000
      3.15000000	      6.97234971	     -5.45900119	      1.73779206	     -0.34769727	      0.81576706	     -1.05252161	     42.85968834	      3.21041236	     -0.50349510	      0.87414738	      0.01525675	     -8.54150888	      0.00000000	      0.00000000	     41.27860861	     -2.29042730	      0.97748632	     89.66278609	      1.56491083	     31.29857835	      0.00000000	      0.00000000	    -24.59463139	      0.94954656	      4.16385777	     89.94795470	      0.19903627	     14.91777971	     42.77891902	     84.06654716	      0.00000000	      0.00000000	     89.96328237	     -1.85077675	     20.88510187	     49.64156883	     69.19574540	      0.00000000	      0.00000000
      3.15500000	      6.83416941	     -5.51691341	      1.79096214	     -0.34787936	      0.81441935	     -1.05246522	     43.12564268	      3.22057107	     -0.50595247	      0.87624767	      0.01529341	     -8.66716585	      0.00000000	      0.00000000	     41.59615718	     -2.31718850	      1.05616008	     89.93364767	      1.56963826	     31.31855798	      0.00000000	      0.00000000	    -24.49333086	      1.01140513	      4.11609994	     89.94839067	      0.21665203	     14.76067456	     42.91443837	     83.79453540	      0.00000000	      0.00000000	     89.96352800	     -1.74430311	     20.37045400	     49.48802620	     76.42078676	      0.00000000	      0.00000000
      3.16000000	      6.80614850	     -5.52258561	      1.90865727	     -0.34796414	      0.81334497	     -1.05255550	     43.25829382	      3.13181691	     -0.63000111	      0.86489094	      0.01509519	     -8.69509581	      0.00000000	      0.00000000	     41.74100245	     -2.26260331	      1.11944927	     90.10400304	      1.57261152	     31.43511756	      0.00000000	      0.00000000	    -24.52451828	      1.01258662	      3.97638281	     89.94884630	      0.26780374	     14.46765834	     43.00238195	     83.93244398	      0.00000000	      0.00000000	     89.96378313	     -1.59728225	     20.39936885	     49.79813032	     69.19191630	      0.00000000	      0.00000000
      3.16500000	      6.79413738	     -5.54253663	      1.98223076	     -0.34808384	      0.81228839	     -1.05248872	     43.35442924	      3.12050524	     -0.60620734	      0.84187765	      0.01469354	     -8.63549027	      0.00000000	      0.00000000	     41.89187020	     -2.26492045	      1.17150395	     90.32701377	      1.57650379	     31.47975858	      0.00000000	      0.00000000	    -24.55841981	      1.01829439	      3.96761738	     89.94954764	      0.24516325	     14.96634456	     43.25738499	     77.27681058	      0.00000000	      0.00000000	     89.96392989	     -1.45687299	     20.50546983	     50.11716971	     64.28507423	      0.00000000	      0.00000000
      3.17000000	      6.72416065	     -5.47726174	      2.05115035	     -0.34817471	      0.81113894	     -1.05252539	     43.55693663	      2.99407964	     -0.79042838	      0.86833301	      0.01515527	     -8.62338806	      0.00000000	      0.00000000	     42.08202382	     -2.16977710	      1.17818759	     90.51317059	      1.57975284	     31.47746221	      0.00000000	      0.00000000	    -24.52406340	      0.93627038	      3.92498449	     89.95012188	      0.15561706	     14.13918828	     43.30078620	     83.57506391	      0.00000000	      0.00000000	     89.96420462	     -1.20740212	     19.88263829	     49.79161934	     75.73909410	      0.00000000	      0.00000000
      3.17500000	      6.67202631	     -5.49696785	      2.13475394	     -0.34827227	      0.81004766	     -1.05245999	     43.71736101	      2.95594779	     -0.78628167	      0.86490232	      0.01509539	     -8.71619780	      0.00000000	      0.00000000	     42.25009053	     -2.17419964	      1.22898263	     90.68272084	      1.58271205	     31.49650587	      0.00000000	      0.00000000	    -24.53000264	      0.93675160	      3.85604518	     89.95065106	      0.18244816	     13.86120207	     43.44767546	     83.49408860	      0.00000000	      0.00000000	     89.96443842	     -1.04681881	     19.70998857	     49.90525256	     75.78864971	      0.00000000	      0.00000000
      3.18000000	      6.62950866	     -5.46366649	      2.20794696	     -0.34837283	      0.80890250	     -1.05248505	     43.86030837	      2.87106297	     -0.83068206	      0.85986641	      0.01500750	     -8.54289685	      0.00000000	      0.00000000	     42.43074125	     -2.11780642	      1.23425045	     90.91269361	      1.58672584	     31.51746659	      0.00000000	      0.00000000	    -24.53320402	      0.88713912	      3.76691147	     89.95105760	      0.19459562	     13.60339869	     43.56911613	     83.70666926	      0.00000000	      0.00000000	     89.96466407	     -0.91636026	     19.85741388	     50.21396984	     67.30224205	      0.00000000	      0.00000000
      3.18500000	      6.56935578	     -5.48386681	      2.33107672	     -0.34846315	      0.80775755	     -1.05255008	     44.04414513	      2.79730685	     -0.98636138	      0.86243749	      0.01505237	     -8.64964392	      0.00000000	      0.00000000	     42.62180012	     -2.07601726	      1.31607198	     91.10590789	      1.59009806	     31.64174830	      0.00000000	      0.00000000	    -24.52086601	      0.91642438	      3.69320729	     89.95158053	      0.15800221	     13.39734609	     43.66878956	     83.75146397	      0.00000000	      0.00000000	     89.96483455	     -0.70374325	     19.74102760	     50.34292023	     63.91133669	      0.00000000	      0.00000000
      3.19000000	      6.54044401	     -5.43452384	      2.33522617	     -0.34842291	      0.80674017	     -1.05234704	     44.15194094	      2.76631018	     -0.95101320	      0.86183602	      0.01504188	     -8.48775713	      0.00000000	      0.00000000	     42.72274839	     -2.10874846	      1.22169734	     91.24779847	      1.59257452	     31.67799267	      0.00000000	      0.00000000	    -24.53502303	      0.82176604	      3.62956070	     89.95203644	      0.18633316	     13.26359891	     43.78852430	     83.42236371	      0.00000000	      0.00000000	     89.96510119	     -0.65474108	     19.30013495	     50.16157027	     74.84764584	      0.00000000	      0.00000000
      3.19500000	      6.51697437	     -5.45731724	      2.40342069	     -0.34863609	      0.80571270	     -1.05233807	     44.27592925	      2.72857703	     -1.05542964	      0.84799979	      0.01480039	     -8.53891650	      0.00000000	      0.00000000	     42.87493515	     -2.12012466	      1.25694525	     91.45123489	      1.59612515	     31.72340399	      0.00000000	      0.00000000	    -24.56852168	      0.84517981	      3.58172390	     89.95250846	      0.21811103	     13.61317568	     44.00546501	     78.28598070	      0.00000000	      0.00000000	     89.96531459	     -0.52852600	     19.38797539	     50.33925148	     69.43574513	      0.00000000	      0.00000000
      3.20000000	      6.43560947	     -5.49279711	      2.55450083	     -0.34868470	      0.80449470	     -1.05242183	     44.46896468	      2.64270146	     -1.16643080	      0.86453667	      0.01508901	     -8.38517785	      0.00000000	      0.00000000	     43.09727945	     -2.04059382	      1.42101515	     91.67851597	      1.60009196	     31.98109772	      0.00000000	      0.00000000	    -24.53112289	      0.90882703	      3.42097373	     89.95282411	      0.26269113	     14.39976819	     44.39857360	     69.50348437	      0.00000000	      0.00000000	     89.96543895	     -0.44043314	     19.45605660	     50.72671217	     62.30214561	      0.00000000	      0.00000000
      3.20500000	      6.38223117	     -5.40929791	      2.53839369	     -0.34870968	      0.80348675	     -1.05229919	     44.63422513	      2.58217741	     -1.30682963	      0.85384157	      0.01490235	     -8.60799506	      0.00000000	      0.00000000	     43.24520465	     -2.07486900	      1.23929974	     91.84162154	      1.60293869	     31.79333997	      0.00000000	      0.00000000	    -24.51865949	      0.75019965	      3.44094216	     89.95341704	      0.24056356	     12.56327126	     44.17343259	     83.30328233	      0.00000000	      0.00000000	     89.96575526	     -0.19944882	     18.93260607	     50.34285008	     74.10488045	      0.00000000	      0.00000000
